<svg width="24" height="25" viewBox="0 0 24 25" fill="none" xmlns="http://www.w3.org/2000/svg">
<path fill-rule="evenodd" clip-rule="evenodd" d="M12 4C7.313 4 3.5 7.813 3.5 12.5C3.5 17.187 7.313 21 12 21C16.687 21 20.5 17.187 20.5 12.5C20.5 7.813 16.687 4 12 4ZM12 22.5C6.486 22.5 2 18.014 2 12.5C2 6.986 6.486 2.5 12 2.5C17.514 2.5 22 6.986 22 12.5C22 18.014 17.514 22.5 12 22.5Z" fill="#00A2D4"/>
<path fill-rule="evenodd" clip-rule="evenodd" d="M10.5585 16.721C10.3665 16.721 10.1735 16.648 10.0275 16.5C9.73546 16.206 9.73646 15.732 10.0295 15.44L12.9815 12.5L10.0295 9.56105C9.73646 9.26905 9.73546 8.79405 10.0275 8.50005C10.3195 8.20505 10.7935 8.20705 11.0875 8.49805L14.5735 11.969C14.7145 12.11 14.7935 12.301 14.7935 12.5C14.7935 12.7 14.7145 12.891 14.5735 13.032L11.0875 16.502C10.9415 16.648 10.7495 16.721 10.5585 16.721Z" fill="#00A2D4"/>
</svg>
